<mxfile host="Electron" modified="2024-05-25T08:47:37.533Z" agent="Mozilla/5.0 (Windows NT 10.0; Win64; x64) AppleWebKit/537.36 (KHTML, like Gecko) draw.io/21.2.8 Chrome/112.0.5615.165 Electron/24.2.0 Safari/537.36" etag="Wu00PhAYBmq3XWQgKdE2" version="21.2.8" type="device" pages="2">
  <diagram name="NaS" id="9Ym3tnWQgLL6RxvB95Zr">
    <mxGraphModel dx="1418" dy="820" grid="1" gridSize="10" guides="1" tooltips="1" connect="1" arrows="1" fold="1" page="1" pageScale="1" pageWidth="1169" pageHeight="827" math="0" shadow="0">
      <root>
        <mxCell id="0" />
        <mxCell id="1" parent="0" />
        <mxCell id="mmL3YTIzJLNIyzHsJpGo-32" value="" style="group;flipH=0;rotation=90;" parent="1" vertex="1" connectable="0">
          <mxGeometry x="760" y="137" width="363.37" height="533" as="geometry" />
        </mxCell>
        <mxCell id="mmL3YTIzJLNIyzHsJpGo-20" style="edgeStyle=orthogonalEdgeStyle;rounded=0;orthogonalLoop=1;jettySize=auto;html=1;exitX=0.5;exitY=1;exitDx=0;exitDy=0;endArrow=none;endFill=0;strokeWidth=2;" parent="mmL3YTIzJLNIyzHsJpGo-32" source="mmL3YTIzJLNIyzHsJpGo-21" edge="1">
          <mxGeometry relative="1" as="geometry">
            <mxPoint x="-144" y="267" as="targetPoint" />
            <Array as="points">
              <mxPoint x="-144" y="266" />
            </Array>
          </mxGeometry>
        </mxCell>
        <mxCell id="mmL3YTIzJLNIyzHsJpGo-21" value="" style="whiteSpace=wrap;html=1;aspect=fixed;strokeWidth=3;fillColor=#E6E6E6;rotation=90;" parent="mmL3YTIzJLNIyzHsJpGo-32" vertex="1">
          <mxGeometry x="-96" y="239" width="55" height="55" as="geometry" />
        </mxCell>
        <mxCell id="mmL3YTIzJLNIyzHsJpGo-23" value="" style="whiteSpace=wrap;html=1;aspect=fixed;strokeWidth=3;fillColor=#E6E6E6;rotation=90;" parent="mmL3YTIzJLNIyzHsJpGo-32" vertex="1">
          <mxGeometry x="204" y="144" width="55" height="55" as="geometry" />
        </mxCell>
        <mxCell id="mmL3YTIzJLNIyzHsJpGo-24" value="" style="whiteSpace=wrap;html=1;aspect=fixed;strokeWidth=3;fillColor=#E6E6E6;rotation=90;" parent="mmL3YTIzJLNIyzHsJpGo-32" vertex="1">
          <mxGeometry x="204" y="334" width="55" height="55" as="geometry" />
        </mxCell>
        <mxCell id="mmL3YTIzJLNIyzHsJpGo-25" style="edgeStyle=orthogonalEdgeStyle;rounded=0;orthogonalLoop=1;jettySize=auto;html=1;exitX=0.5;exitY=0;exitDx=0;exitDy=0;endArrow=none;endFill=0;strokeWidth=2;" parent="mmL3YTIzJLNIyzHsJpGo-32" source="mmL3YTIzJLNIyzHsJpGo-26" target="mmL3YTIzJLNIyzHsJpGo-23" edge="1">
          <mxGeometry relative="1" as="geometry" />
        </mxCell>
        <mxCell id="mmL3YTIzJLNIyzHsJpGo-26" value="" style="whiteSpace=wrap;html=1;aspect=fixed;strokeWidth=3;fillColor=#E6E6E6;rotation=90;" parent="mmL3YTIzJLNIyzHsJpGo-32" vertex="1">
          <mxGeometry x="64" y="144" width="55" height="55" as="geometry" />
        </mxCell>
        <mxCell id="mmL3YTIzJLNIyzHsJpGo-19" style="rounded=0;orthogonalLoop=1;jettySize=auto;html=1;strokeWidth=2;endArrow=none;endFill=0;entryX=0.5;entryY=1;entryDx=0;entryDy=0;exitX=0.5;exitY=0;exitDx=0;exitDy=0;" parent="mmL3YTIzJLNIyzHsJpGo-32" source="mmL3YTIzJLNIyzHsJpGo-21" target="mmL3YTIzJLNIyzHsJpGo-26" edge="1">
          <mxGeometry relative="1" as="geometry" />
        </mxCell>
        <mxCell id="mmL3YTIzJLNIyzHsJpGo-27" style="edgeStyle=orthogonalEdgeStyle;rounded=0;orthogonalLoop=1;jettySize=auto;html=1;exitX=0.5;exitY=0;exitDx=0;exitDy=0;endArrow=none;endFill=0;strokeWidth=2;" parent="mmL3YTIzJLNIyzHsJpGo-32" source="mmL3YTIzJLNIyzHsJpGo-28" target="mmL3YTIzJLNIyzHsJpGo-24" edge="1">
          <mxGeometry relative="1" as="geometry" />
        </mxCell>
        <mxCell id="mmL3YTIzJLNIyzHsJpGo-28" value="" style="whiteSpace=wrap;html=1;aspect=fixed;strokeWidth=3;fillColor=#E6E6E6;rotation=90;" parent="mmL3YTIzJLNIyzHsJpGo-32" vertex="1">
          <mxGeometry x="64" y="334" width="55" height="55" as="geometry" />
        </mxCell>
        <mxCell id="mmL3YTIzJLNIyzHsJpGo-18" style="rounded=0;orthogonalLoop=1;jettySize=auto;html=1;strokeWidth=2;endArrow=none;endFill=0;entryX=0.5;entryY=1;entryDx=0;entryDy=0;exitX=0.5;exitY=0;exitDx=0;exitDy=0;" parent="mmL3YTIzJLNIyzHsJpGo-32" source="mmL3YTIzJLNIyzHsJpGo-21" target="mmL3YTIzJLNIyzHsJpGo-28" edge="1">
          <mxGeometry relative="1" as="geometry" />
        </mxCell>
        <mxCell id="mmL3YTIzJLNIyzHsJpGo-29" value="" style="whiteSpace=wrap;html=1;aspect=fixed;strokeWidth=3;dashed=1;fillColor=#E6E6E6;strokeColor=#4D9900;rotation=90;" parent="mmL3YTIzJLNIyzHsJpGo-32" vertex="1">
          <mxGeometry x="334" y="144" width="55" height="55" as="geometry" />
        </mxCell>
        <mxCell id="mmL3YTIzJLNIyzHsJpGo-22" style="edgeStyle=orthogonalEdgeStyle;rounded=0;orthogonalLoop=1;jettySize=auto;html=1;exitX=0.5;exitY=0;exitDx=0;exitDy=0;strokeWidth=2;endArrow=none;endFill=0;dashed=1;strokeColor=#4D9900;" parent="mmL3YTIzJLNIyzHsJpGo-32" source="mmL3YTIzJLNIyzHsJpGo-23" target="mmL3YTIzJLNIyzHsJpGo-29" edge="1">
          <mxGeometry relative="1" as="geometry" />
        </mxCell>
        <mxCell id="mmL3YTIzJLNIyzHsJpGo-30" value="" style="whiteSpace=wrap;html=1;aspect=fixed;strokeWidth=3;dashed=1;fillColor=#E6E6E6;strokeColor=#4D9900;rotation=90;" parent="mmL3YTIzJLNIyzHsJpGo-32" vertex="1">
          <mxGeometry x="334" y="334" width="55" height="55" as="geometry" />
        </mxCell>
        <mxCell id="mmL3YTIzJLNIyzHsJpGo-31" style="edgeStyle=orthogonalEdgeStyle;rounded=0;orthogonalLoop=1;jettySize=auto;html=1;exitX=0.5;exitY=0;exitDx=0;exitDy=0;strokeWidth=2;endArrow=none;endFill=0;dashed=1;strokeColor=#4D9900;entryX=0.5;entryY=1;entryDx=0;entryDy=0;" parent="mmL3YTIzJLNIyzHsJpGo-32" source="mmL3YTIzJLNIyzHsJpGo-24" target="mmL3YTIzJLNIyzHsJpGo-30" edge="1">
          <mxGeometry relative="1" as="geometry">
            <mxPoint x="249" y="181" as="sourcePoint" />
            <mxPoint x="324" y="181" as="targetPoint" />
          </mxGeometry>
        </mxCell>
        <mxCell id="mmL3YTIzJLNIyzHsJpGo-37" value="&lt;font style=&quot;font-size: 20px;&quot; face=&quot;Garamond&quot;&gt;&lt;b style=&quot;&quot;&gt;Supporting both blocks&lt;/b&gt;&lt;br&gt;&lt;span style=&quot;&quot;&gt;(Nothing at Stake)&lt;/span&gt;&lt;br&gt;&lt;font style=&quot;font-size: 20px;&quot;&gt;Reward guaranteed&lt;/font&gt;&lt;br&gt;&lt;/font&gt;" style="text;html=1;strokeColor=none;fillColor=none;align=center;verticalAlign=middle;whiteSpace=wrap;rounded=0;" parent="mmL3YTIzJLNIyzHsJpGo-32" vertex="1">
          <mxGeometry x="99.62" y="443" width="263.75" height="30" as="geometry" />
        </mxCell>
        <mxCell id="mmL3YTIzJLNIyzHsJpGo-35" value="&lt;font style=&quot;font-size: 20px;&quot; face=&quot;Garamond&quot;&gt;&lt;b style=&quot;&quot;&gt;Supporting only one block&lt;/b&gt;&lt;br&gt;&lt;span style=&quot;&quot;&gt;(Normal behavior)&lt;/span&gt;&lt;br&gt;&lt;font style=&quot;font-size: 20px;&quot;&gt;Reward not guaranteed&lt;/font&gt;&lt;br&gt;&lt;/font&gt;" style="text;html=1;strokeColor=none;fillColor=none;align=center;verticalAlign=middle;whiteSpace=wrap;rounded=0;" parent="1" vertex="1">
          <mxGeometry x="279.63" y="580" width="263.75" height="30" as="geometry" />
        </mxCell>
        <mxCell id="mmL3YTIzJLNIyzHsJpGo-13" style="edgeStyle=orthogonalEdgeStyle;rounded=0;orthogonalLoop=1;jettySize=auto;html=1;exitX=0.5;exitY=1;exitDx=0;exitDy=0;endArrow=none;endFill=0;strokeWidth=2;" parent="1" source="mmL3YTIzJLNIyzHsJpGo-4" edge="1">
          <mxGeometry relative="1" as="geometry">
            <mxPoint x="36" y="404" as="targetPoint" />
            <Array as="points">
              <mxPoint x="36" y="403" />
            </Array>
          </mxGeometry>
        </mxCell>
        <mxCell id="mmL3YTIzJLNIyzHsJpGo-4" value="" style="whiteSpace=wrap;html=1;aspect=fixed;strokeWidth=3;fillColor=#E6E6E6;rotation=90;" parent="1" vertex="1">
          <mxGeometry x="84" y="376" width="55" height="55" as="geometry" />
        </mxCell>
        <mxCell id="mmL3YTIzJLNIyzHsJpGo-5" value="" style="whiteSpace=wrap;html=1;aspect=fixed;strokeWidth=3;fillColor=#E6E6E6;rotation=90;" parent="1" vertex="1">
          <mxGeometry x="384" y="281" width="55" height="55" as="geometry" />
        </mxCell>
        <mxCell id="mmL3YTIzJLNIyzHsJpGo-6" value="" style="whiteSpace=wrap;html=1;aspect=fixed;strokeWidth=3;fillColor=#E6E6E6;rotation=90;" parent="1" vertex="1">
          <mxGeometry x="384" y="471" width="55" height="55" as="geometry" />
        </mxCell>
        <mxCell id="mmL3YTIzJLNIyzHsJpGo-11" style="edgeStyle=orthogonalEdgeStyle;rounded=0;orthogonalLoop=1;jettySize=auto;html=1;exitX=0.5;exitY=0;exitDx=0;exitDy=0;endArrow=none;endFill=0;strokeWidth=2;" parent="1" source="mmL3YTIzJLNIyzHsJpGo-7" target="mmL3YTIzJLNIyzHsJpGo-5" edge="1">
          <mxGeometry relative="1" as="geometry" />
        </mxCell>
        <mxCell id="mmL3YTIzJLNIyzHsJpGo-7" value="" style="whiteSpace=wrap;html=1;aspect=fixed;strokeWidth=3;fillColor=#E6E6E6;rotation=90;" parent="1" vertex="1">
          <mxGeometry x="244" y="281" width="55" height="55" as="geometry" />
        </mxCell>
        <mxCell id="mmL3YTIzJLNIyzHsJpGo-10" style="rounded=0;orthogonalLoop=1;jettySize=auto;html=1;strokeWidth=2;endArrow=none;endFill=0;entryX=0.5;entryY=1;entryDx=0;entryDy=0;exitX=0.5;exitY=0;exitDx=0;exitDy=0;" parent="1" source="mmL3YTIzJLNIyzHsJpGo-4" target="mmL3YTIzJLNIyzHsJpGo-7" edge="1">
          <mxGeometry relative="1" as="geometry" />
        </mxCell>
        <mxCell id="mmL3YTIzJLNIyzHsJpGo-8" value="" style="whiteSpace=wrap;html=1;aspect=fixed;strokeWidth=3;fillColor=#E6E6E6;rotation=90;" parent="1" vertex="1">
          <mxGeometry x="244" y="471" width="55" height="55" as="geometry" />
        </mxCell>
        <mxCell id="mmL3YTIzJLNIyzHsJpGo-12" style="edgeStyle=orthogonalEdgeStyle;rounded=0;orthogonalLoop=1;jettySize=auto;html=1;exitX=0.5;exitY=0;exitDx=0;exitDy=0;endArrow=none;endFill=0;strokeWidth=2;" parent="1" source="mmL3YTIzJLNIyzHsJpGo-8" target="mmL3YTIzJLNIyzHsJpGo-6" edge="1">
          <mxGeometry relative="1" as="geometry" />
        </mxCell>
        <mxCell id="mmL3YTIzJLNIyzHsJpGo-9" style="rounded=0;orthogonalLoop=1;jettySize=auto;html=1;strokeWidth=2;endArrow=none;endFill=0;entryX=0.5;entryY=1;entryDx=0;entryDy=0;exitX=0.5;exitY=0;exitDx=0;exitDy=0;" parent="1" source="mmL3YTIzJLNIyzHsJpGo-4" target="mmL3YTIzJLNIyzHsJpGo-8" edge="1">
          <mxGeometry relative="1" as="geometry" />
        </mxCell>
        <mxCell id="mmL3YTIzJLNIyzHsJpGo-14" value="" style="whiteSpace=wrap;html=1;aspect=fixed;strokeWidth=3;dashed=1;fillColor=#E6E6E6;strokeColor=#4D9900;rotation=90;" parent="1" vertex="1">
          <mxGeometry x="514" y="281" width="55" height="55" as="geometry" />
        </mxCell>
        <mxCell id="mmL3YTIzJLNIyzHsJpGo-17" style="edgeStyle=orthogonalEdgeStyle;rounded=0;orthogonalLoop=1;jettySize=auto;html=1;exitX=0.5;exitY=0;exitDx=0;exitDy=0;strokeWidth=2;endArrow=none;endFill=0;dashed=1;strokeColor=#4D9900;" parent="1" source="mmL3YTIzJLNIyzHsJpGo-5" target="mmL3YTIzJLNIyzHsJpGo-14" edge="1">
          <mxGeometry relative="1" as="geometry" />
        </mxCell>
        <mxCell id="mmL3YTIzJLNIyzHsJpGo-38" value="" style="whiteSpace=wrap;html=1;aspect=fixed;strokeWidth=3;dashed=1;fillColor=#E6E6E6;strokeColor=#CC0000;rotation=90;" parent="1" vertex="1">
          <mxGeometry x="514" y="471" width="55" height="55" as="geometry" />
        </mxCell>
        <mxCell id="mmL3YTIzJLNIyzHsJpGo-39" style="edgeStyle=orthogonalEdgeStyle;rounded=0;orthogonalLoop=1;jettySize=auto;html=1;exitX=0.5;exitY=0;exitDx=0;exitDy=0;strokeWidth=2;endArrow=none;endFill=0;dashed=1;strokeColor=#CC0000;" parent="1" target="mmL3YTIzJLNIyzHsJpGo-38" edge="1">
          <mxGeometry relative="1" as="geometry">
            <mxPoint x="439" y="499" as="sourcePoint" />
          </mxGeometry>
        </mxCell>
      </root>
    </mxGraphModel>
  </diagram>
  <diagram id="LDwl66-hHTjTwH-LTW0f" name="Long Range">
    <mxGraphModel dx="1418" dy="820" grid="1" gridSize="10" guides="1" tooltips="1" connect="1" arrows="1" fold="1" page="1" pageScale="1" pageWidth="1169" pageHeight="827" math="0" shadow="0">
      <root>
        <mxCell id="0" />
        <mxCell id="1" parent="0" />
        <mxCell id="v6M47DKB7N8OFDshyCgI-16" value="&lt;font style=&quot;font-size: 20px;&quot; face=&quot;Garamond&quot;&gt;Since Illegitiamte blockchain is longer, it is accepted as the current valid state of the blockchain and legit blocks start being added&lt;br&gt;&lt;/font&gt;" style="text;html=1;strokeColor=none;fillColor=none;align=center;verticalAlign=middle;whiteSpace=wrap;rounded=0;" vertex="1" parent="1">
          <mxGeometry x="36" y="470" width="830" height="30" as="geometry" />
        </mxCell>
        <mxCell id="v6M47DKB7N8OFDshyCgI-17" style="edgeStyle=orthogonalEdgeStyle;rounded=0;orthogonalLoop=1;jettySize=auto;html=1;exitX=0.5;exitY=1;exitDx=0;exitDy=0;strokeWidth=2;endArrow=none;endFill=0;" edge="1" parent="1" source="v6M47DKB7N8OFDshyCgI-3">
          <mxGeometry relative="1" as="geometry">
            <mxPoint x="50" y="151.8181818181818" as="targetPoint" />
          </mxGeometry>
        </mxCell>
        <mxCell id="v6M47DKB7N8OFDshyCgI-3" value="" style="whiteSpace=wrap;html=1;aspect=fixed;strokeWidth=3;fillColor=#E6E6E6;rotation=90;" vertex="1" parent="1">
          <mxGeometry x="91.70854271356784" y="129.27272727272725" width="45.87939698492462" height="45.87939698492462" as="geometry" />
        </mxCell>
        <mxCell id="v6M47DKB7N8OFDshyCgI-4" value="" style="whiteSpace=wrap;html=1;aspect=fixed;strokeWidth=3;fillColor=#E6E6E6;rotation=90;" vertex="1" parent="1">
          <mxGeometry x="338.62311557788945" y="129.27272727272725" width="45.87939698492462" height="45.87939698492462" as="geometry" />
        </mxCell>
        <mxCell id="v6M47DKB7N8OFDshyCgI-5" value="" style="whiteSpace=wrap;html=1;aspect=fixed;strokeWidth=3;fillColor=#E6E6E6;rotation=90;strokeColor=#CC0000;dashed=1;" vertex="1" parent="1">
          <mxGeometry x="341" y="308.1818181818182" width="45.87939698492462" height="45.87939698492462" as="geometry" />
        </mxCell>
        <mxCell id="v6M47DKB7N8OFDshyCgI-6" style="edgeStyle=orthogonalEdgeStyle;rounded=0;orthogonalLoop=1;jettySize=auto;html=1;exitX=0.5;exitY=0;exitDx=0;exitDy=0;endArrow=none;endFill=0;strokeWidth=2;" edge="1" parent="1" source="v6M47DKB7N8OFDshyCgI-7" target="v6M47DKB7N8OFDshyCgI-4">
          <mxGeometry relative="1" as="geometry" />
        </mxCell>
        <mxCell id="v6M47DKB7N8OFDshyCgI-7" value="" style="whiteSpace=wrap;html=1;aspect=fixed;strokeWidth=3;fillColor=#E6E6E6;rotation=90;" vertex="1" parent="1">
          <mxGeometry x="215.16582914572862" y="129.27272727272725" width="45.87939698492462" height="45.87939698492462" as="geometry" />
        </mxCell>
        <mxCell id="v6M47DKB7N8OFDshyCgI-8" style="rounded=0;orthogonalLoop=1;jettySize=auto;html=1;strokeWidth=2;endArrow=none;endFill=0;entryX=0.5;entryY=1;entryDx=0;entryDy=0;exitX=0.5;exitY=0;exitDx=0;exitDy=0;" edge="1" parent="1" source="v6M47DKB7N8OFDshyCgI-3" target="v6M47DKB7N8OFDshyCgI-7">
          <mxGeometry relative="1" as="geometry" />
        </mxCell>
        <mxCell id="v6M47DKB7N8OFDshyCgI-9" style="edgeStyle=orthogonalEdgeStyle;rounded=0;orthogonalLoop=1;jettySize=auto;html=1;exitX=0.5;exitY=0;exitDx=0;exitDy=0;endArrow=none;endFill=0;strokeWidth=2;strokeColor=#CC0000;dashed=1;" edge="1" parent="1" source="v6M47DKB7N8OFDshyCgI-10" target="v6M47DKB7N8OFDshyCgI-5">
          <mxGeometry relative="1" as="geometry" />
        </mxCell>
        <mxCell id="v6M47DKB7N8OFDshyCgI-10" value="" style="whiteSpace=wrap;html=1;aspect=fixed;strokeWidth=3;fillColor=#E6E6E6;rotation=90;strokeColor=#CC0000;dashed=1;" vertex="1" parent="1">
          <mxGeometry x="215.16311557788947" y="308.1818181818182" width="45.87939698492462" height="45.87939698492462" as="geometry" />
        </mxCell>
        <mxCell id="v6M47DKB7N8OFDshyCgI-11" style="rounded=0;orthogonalLoop=1;jettySize=auto;html=1;strokeWidth=2;endArrow=none;endFill=0;entryX=0.5;entryY=1;entryDx=0;entryDy=0;strokeColor=#CC0000;dashed=1;exitX=1;exitY=0.5;exitDx=0;exitDy=0;edgeStyle=orthogonalEdgeStyle;" edge="1" parent="1" source="v6M47DKB7N8OFDshyCgI-3" target="v6M47DKB7N8OFDshyCgI-10">
          <mxGeometry relative="1" as="geometry">
            <mxPoint x="66.68341708542714" y="328.1818181818182" as="sourcePoint" />
          </mxGeometry>
        </mxCell>
        <mxCell id="v6M47DKB7N8OFDshyCgI-14" value="" style="whiteSpace=wrap;html=1;aspect=fixed;strokeWidth=3;dashed=1;fillColor=#E6E6E6;strokeColor=#CC0000;rotation=90;" vertex="1" parent="1">
          <mxGeometry x="468" y="308.1818181818182" width="45.87939698492462" height="45.87939698492462" as="geometry" />
        </mxCell>
        <mxCell id="v6M47DKB7N8OFDshyCgI-15" style="edgeStyle=orthogonalEdgeStyle;rounded=0;orthogonalLoop=1;jettySize=auto;html=1;exitX=0.5;exitY=0;exitDx=0;exitDy=0;strokeWidth=2;endArrow=none;endFill=0;dashed=1;strokeColor=#CC0000;entryX=0.5;entryY=1;entryDx=0;entryDy=0;" edge="1" parent="1" source="v6M47DKB7N8OFDshyCgI-5" target="v6M47DKB7N8OFDshyCgI-14">
          <mxGeometry relative="1" as="geometry">
            <mxPoint x="514.6331658291457" y="169.09090909090912" as="sourcePoint" />
            <mxPoint x="577.1959798994975" y="169.09090909090912" as="targetPoint" />
          </mxGeometry>
        </mxCell>
        <mxCell id="v6M47DKB7N8OFDshyCgI-20" value="" style="whiteSpace=wrap;html=1;aspect=fixed;strokeWidth=3;fillColor=#E6E6E6;rotation=90;" vertex="1" parent="1">
          <mxGeometry x="462.08040201005025" y="129.27272727272725" width="45.87939698492462" height="45.87939698492462" as="geometry" />
        </mxCell>
        <mxCell id="v6M47DKB7N8OFDshyCgI-21" style="edgeStyle=orthogonalEdgeStyle;rounded=0;orthogonalLoop=1;jettySize=auto;html=1;endArrow=none;endFill=0;strokeWidth=2;" edge="1" parent="1" source="v6M47DKB7N8OFDshyCgI-20" target="v6M47DKB7N8OFDshyCgI-4">
          <mxGeometry relative="1" as="geometry">
            <mxPoint x="291.0753768844221" y="163.8181818181818" as="sourcePoint" />
            <mxPoint x="361.9798994974874" y="163.8181818181818" as="targetPoint" />
          </mxGeometry>
        </mxCell>
        <mxCell id="v6M47DKB7N8OFDshyCgI-22" value="" style="whiteSpace=wrap;html=1;aspect=fixed;strokeWidth=3;dashed=1;fillColor=#E6E6E6;strokeColor=#CC0000;rotation=90;" vertex="1" parent="1">
          <mxGeometry x="594" y="308.1818181818182" width="45.87939698492462" height="45.87939698492462" as="geometry" />
        </mxCell>
        <mxCell id="v6M47DKB7N8OFDshyCgI-24" style="edgeStyle=orthogonalEdgeStyle;rounded=0;orthogonalLoop=1;jettySize=auto;html=1;strokeWidth=2;endArrow=none;endFill=0;dashed=1;strokeColor=#CC0000;" edge="1" parent="1" source="v6M47DKB7N8OFDshyCgI-14" target="v6M47DKB7N8OFDshyCgI-22">
          <mxGeometry relative="1" as="geometry">
            <mxPoint x="516.3015075376884" y="342.7272727272727" as="sourcePoint" />
            <mxPoint x="593.8793969849246" y="342.7272727272727" as="targetPoint" />
          </mxGeometry>
        </mxCell>
        <mxCell id="v6M47DKB7N8OFDshyCgI-25" value="" style="endArrow=none;dashed=1;html=1;strokeWidth=3;rounded=0;" edge="1" parent="1" source="v6M47DKB7N8OFDshyCgI-37">
          <mxGeometry width="50" height="50" relative="1" as="geometry">
            <mxPoint x="299.38" y="370" as="sourcePoint" />
            <mxPoint x="180" y="120" as="targetPoint" />
          </mxGeometry>
        </mxCell>
        <mxCell id="v6M47DKB7N8OFDshyCgI-27" value="" style="whiteSpace=wrap;html=1;aspect=fixed;strokeWidth=3;fillColor=#E6E6E6;rotation=90;" vertex="1" parent="1">
          <mxGeometry x="720.0006030150753" y="308.1818181818182" width="45.87939698492462" height="45.87939698492462" as="geometry" />
        </mxCell>
        <mxCell id="v6M47DKB7N8OFDshyCgI-29" style="edgeStyle=orthogonalEdgeStyle;rounded=0;orthogonalLoop=1;jettySize=auto;html=1;endArrow=none;endFill=0;strokeWidth=2;" edge="1" parent="1" source="v6M47DKB7N8OFDshyCgI-27" target="v6M47DKB7N8OFDshyCgI-22">
          <mxGeometry relative="1" as="geometry">
            <mxPoint x="470.4221105527638" y="161.8181818181818" as="sourcePoint" />
            <mxPoint x="392.8442211055276" y="161.8181818181818" as="targetPoint" />
          </mxGeometry>
        </mxCell>
        <mxCell id="v6M47DKB7N8OFDshyCgI-31" value="&lt;font face=&quot;Lucida Console&quot;&gt;&lt;span style=&quot;font-size: 18px;&quot;&gt;Legitimate Blockchain&lt;/span&gt;&lt;/font&gt;" style="text;html=1;strokeColor=none;fillColor=none;align=center;verticalAlign=middle;whiteSpace=wrap;rounded=0;" vertex="1" parent="1">
          <mxGeometry x="180" y="80" width="278.29" height="30" as="geometry" />
        </mxCell>
        <mxCell id="v6M47DKB7N8OFDshyCgI-32" value="&lt;font face=&quot;Lucida Console&quot;&gt;&lt;span style=&quot;font-size: 18px;&quot;&gt;Illegitimate Blockchain&lt;/span&gt;&lt;/font&gt;" style="text;html=1;strokeColor=none;fillColor=none;align=center;verticalAlign=middle;whiteSpace=wrap;rounded=0;" vertex="1" parent="1">
          <mxGeometry x="189.71" y="270" width="278.29" height="30" as="geometry" />
        </mxCell>
        <mxCell id="v6M47DKB7N8OFDshyCgI-35" value="" style="endArrow=none;dashed=1;html=1;strokeWidth=3;rounded=0;" edge="1" parent="1" source="v6M47DKB7N8OFDshyCgI-36">
          <mxGeometry width="50" height="50" relative="1" as="geometry">
            <mxPoint x="680" y="380" as="sourcePoint" />
            <mxPoint x="680" y="280" as="targetPoint" />
          </mxGeometry>
        </mxCell>
        <mxCell id="v6M47DKB7N8OFDshyCgI-36" value="&lt;font face=&quot;Lucida Console&quot;&gt;Illegitimate blockchain is released&lt;/font&gt;" style="text;html=1;align=center;verticalAlign=middle;resizable=0;points=[];autosize=1;strokeColor=none;fillColor=none;" vertex="1" parent="1">
          <mxGeometry x="540" y="370" width="280" height="30" as="geometry" />
        </mxCell>
        <mxCell id="v6M47DKB7N8OFDshyCgI-37" value="&lt;font face=&quot;Lucida Console&quot;&gt;Illegitiame blockchain is created and fake block history is written&lt;/font&gt;" style="text;html=1;strokeColor=none;fillColor=none;align=center;verticalAlign=middle;whiteSpace=wrap;rounded=0;" vertex="1" parent="1">
          <mxGeometry x="36" y="370" width="288.62" height="30" as="geometry" />
        </mxCell>
      </root>
    </mxGraphModel>
  </diagram>
</mxfile>
